<?xml version="1.0" encoding="UTF-8"?>
<!DOCTYPE svg PUBLIC "-//W3C//DTD SVG 1.1//EN" "http://www.w3.org/Graphics/SVG/1.1/DTD/svg11.dtd">
<!-- Creator: CorelDRAW X7.4 EN Portable -->
<svg xmlns="http://www.w3.org/2000/svg" xml:space="preserve" width="6.09999in" height="1.31478in" version="1.1" style="shape-rendering:geometricPrecision; text-rendering:geometricPrecision; image-rendering:optimizeQuality; fill-rule:evenodd; clip-rule:evenodd"
viewBox="0 0 6100 1315"
 xmlns:xlink="http://www.w3.org/1999/xlink">
 <defs>
  <style type="text/css">
   <![CDATA[
    .fil1 {fill:#E60000}
    .fil0 {fill:white}
    .fil3 {fill:#E60000;fill-rule:nonzero}
    .fil2 {fill:white;fill-rule:nonzero}
   ]]>
  </style>
 </defs>
 <g id="Layer_x0020_1">
  <metadata id="CorelCorpID_0Corel-Layer"/>
  <g id="_501449096">
   <path class="fil0" d="M405 551l-397 -338c-5,-4 -8,-11 -8,-18l0 -171c0,-13 11,-24 24,-24l154 0c14,0 24,11 24,24l0 89 304 258 303 -258 0 -89c0,-13 11,-24 24,-24l155 0c13,0 23,11 23,24l0 171c0,7 -2,14 -8,18l-396 338 0 90c0,13 -11,24 -24,24l-155 0c-13,0 -23,-11 -23,-24l0 -90z"/>
   <path class="fil1" d="M202 1052l203 -172 0 -90c0,-13 10,-24 23,-24l155 0c13,0 24,11 24,24l0 90 202 172 0 -505c0,-8 3,-14 9,-18l154 -132c7,-6 17,-8 26,-4 8,4 13,13 13,22l0 876c0,13 -10,24 -23,24l-174 0c-6,0 -11,-2 -15,-6l-293 -249 -293 249c-5,4 -10,6 -16,6l-173 0c-13,0 -24,-11 -24,-24l0 -876c0,-9 5,-18 14,-22 9,-4 18,-2 25,4l155 131c5,5 8,11 8,19l0 505z"/>
   <path class="fil2" d="M6100 957l-130 0 -158 -197 0 197 -111 0 0 -606 111 0 0 364 149 -191 134 0 -174 214 179 219zm-654 12c-65,0 -120,-22 -163,-65 -44,-44 -66,-99 -66,-163 0,-65 22,-119 66,-163 43,-44 98,-66 163,-66 42,0 81,10 115,30 35,21 61,48 79,82l-96 56c-9,-18 -22,-32 -40,-42 -17,-11 -37,-16 -59,-16 -33,0 -61,11 -83,33 -22,23 -33,51 -33,86 0,34 11,62 33,84 22,22 50,34 83,34 23,0 43,-6 60,-16 18,-10 31,-24 40,-42l97 56c-19,34 -46,61 -81,82 -34,20 -73,30 -115,30zm-626 -140c23,22 52,34 86,34 35,0 64,-12 86,-34 23,-23 35,-52 35,-88 0,-36 -12,-65 -35,-88 -22,-23 -51,-34 -86,-34 -34,0 -63,11 -86,34 -22,23 -33,52 -33,88 0,36 11,65 33,88zm207 -305l111 0 0 433 -111 0 0 -51c-34,42 -81,63 -142,63 -57,0 -107,-22 -148,-66 -41,-44 -62,-98 -62,-162 0,-64 21,-119 62,-163 41,-44 91,-66 148,-66 61,0 108,21 142,63l0 -51zm-556 -173l119 0 0 606 -119 0 0 -251 -225 0 0 251 -119 0 0 -606 119 0 0 241 225 0 0 -241z"/>
   <path class="fil3" d="M3711 700l221 0c-7,-29 -20,-51 -40,-66 -20,-14 -42,-22 -68,-22 -30,0 -55,8 -74,23 -20,16 -33,37 -39,65zm1 87c16,54 56,81 123,81 42,0 75,-14 97,-43l90 52c-43,62 -106,92 -189,92 -72,0 -129,-21 -172,-65 -44,-43 -65,-97 -65,-163 0,-66 21,-120 64,-164 42,-43 97,-65 164,-65 64,0 116,22 157,66 42,44 62,98 62,163 0,14 -1,29 -4,46l-327 0zm-785 170l-161 -606 126 0 116 449 127 -449 103 0 127 448 115 -448 116 0 -160 606 -136 0 -115 -402 -114 402 -144 0z"/>
   <path class="fil2" d="M2505 647c0,12 8,21 23,28 15,8 34,14 56,19 22,6 44,13 66,21 21,9 40,23 55,42 16,20 23,44 23,74 0,44 -16,78 -49,102 -34,24 -75,36 -125,36 -89,0 -149,-34 -182,-103l97 -54c13,37 41,56 85,56 40,0 60,-12 60,-37 0,-12 -8,-21 -23,-28 -15,-8 -34,-14 -56,-20 -22,-6 -44,-13 -66,-22 -22,-8 -40,-22 -56,-41 -15,-18 -22,-42 -22,-70 0,-43 15,-77 47,-101 31,-25 70,-37 117,-37 35,0 67,8 96,24 29,16 52,38 69,68l-96 52c-13,-30 -37,-44 -69,-44 -14,0 -26,3 -36,9 -9,7 -14,15 -14,26zm-497 53l221 0c-6,-29 -19,-51 -39,-66 -20,-14 -43,-22 -68,-22 -30,0 -55,8 -75,23 -19,16 -32,37 -39,65zm2 87c15,54 56,81 122,81 43,0 75,-14 97,-43l90 52c-42,62 -105,92 -188,92 -72,0 -129,-21 -173,-65 -43,-43 -65,-97 -65,-163 0,-66 22,-120 64,-164 43,-43 98,-65 165,-65 64,0 116,22 157,66 42,44 62,98 62,163 0,14 -1,29 -4,46l-327 0zm-60 -436l-208 370 0 236 -119 0 0 -236 -207 -370 135 0 131 252 132 -252 136 0z"/>
  </g>
 </g>
</svg>
