<svg xmlns:xlink="http://www.w3.org/1999/xlink" viewBox="0 0 3713 4827" style="shape-rendering:geometricPrecision; text-rendering:geometricPrecision; image-rendering:optimizeQuality; fill-rule:evenodd; clip-rule:evenodd" version="1.1" height="4.82728in" width="3.71333in" xml:space="preserve" xmlns="http://www.w3.org/2000/svg">
 <defs>
  <style type="text/css">
   
    .fil0 {fill:black}
   
  </style>
 </defs>
 <g id="Layer_x0020_1">
  <metadata id="CorelCorpID_0Corel-Layer"></metadata>
  <g id="_648817368">
   <path d="M1485 2022l-1454 -1239c-20,-17 -31,-40 -31,-67l0 -628c0,-49 39,-88 88,-88l567 0c48,0 88,39 88,88l0 326 1114 948 1114 -948 0 -326c0,-49 39,-88 87,-88l568 0c48,0 87,39 87,88l0 628c0,27 -10,50 -31,67l-1454 1239 0 331c0,49 -39,88 -88,88l-567 0c-48,0 -88,-39 -88,-88l0 -331z" class="fil0"></path>
   <path d="M743 3864l742 -632 0 -331c0,-48 40,-87 88,-87l567 0c49,0 88,39 88,87l0 331 743 632 0 -1857c0,-26 10,-49 31,-67l567 -483c26,-22 62,-27 93,-13 32,15 51,45 51,80l0 3216c0,48 -39,87 -87,87l-637 0c-22,0 -41,-7 -57,-21l-1075 -915 -1075 915c-17,14 -36,21 -57,21l-637 0c-49,0 -88,-39 -88,-87l0 -3216c0,-35 19,-65 51,-80 32,-14 67,-9 94,13l567 483c20,18 31,40 31,67l0 1857z" class="fil0"></path>
  </g>
 </g>
</svg>
